HIERARCHY
ROOT mixamorig:Hips
{
	OFFSET -0.000008 104.274872 1.554316
	CHANNELS 6 Xposition Yposition Zposition Xrotation Yrotation Zrotation
	JOINT mixamorig:Spine
	{
		OFFSET -0.000005 10.181595 0.131519
		CHANNELS 6 Xposition Yposition Zposition Xrotation Yrotation Zrotation
		JOINT mixamorig:Spine1
		{
			OFFSET -0.000000 9.893959 -1.470707
			CHANNELS 6 Xposition Yposition Zposition Xrotation Yrotation Zrotation
			JOINT mixamorig:Spine2
			{
				OFFSET -0.000000 9.220757 -1.370641
				CHANNELS 6 Xposition Yposition Zposition Xrotation Yrotation Zrotation
				JOINT mixamorig:Neck
				{
					OFFSET 0.000001 16.740417 -2.049036
					CHANNELS 6 Xposition Yposition Zposition Xrotation Yrotation Zrotation
					JOINT mixamorig:Head
					{
						OFFSET 0.000000 9.617874 1.685006
						CHANNELS 6 Xposition Yposition Zposition Xrotation Yrotation Zrotation
						JOINT mixamorig:HeadTop_End
						{
							OFFSET 0.000002 22.037354 7.501101
							CHANNELS 6 Xposition Yposition Zposition Xrotation Yrotation Zrotation
							End Site
							{
								OFFSET 0.000168 2310.654297 -282.823242
							}
						}
					}
				}
				JOINT mixamorig:RightShoulder
				{
					OFFSET -4.569970 11.014908 -2.160885
					CHANNELS 6 Xposition Yposition Zposition Xrotation Yrotation Zrotation
					JOINT mixamorig:RightArm
					{
						OFFSET -10.592851 -0.524811 -2.232101
						CHANNELS 6 Xposition Yposition Zposition Xrotation Yrotation Zrotation
						JOINT mixamorig:RightForeArm
						{
							OFFSET -27.841511 0.000031 -0.000004
							CHANNELS 6 Xposition Yposition Zposition Xrotation Yrotation Zrotation
							JOINT mixamorig:RightHand
							{
								OFFSET -28.328831 -0.000015 0.000015
								CHANNELS 6 Xposition Yposition Zposition Xrotation Yrotation Zrotation
								JOINT mixamorig:RightHandThumb1
								{
									OFFSET -2.464806 -1.573990 2.681852
									CHANNELS 6 Xposition Yposition Zposition Xrotation Yrotation Zrotation
									JOINT mixamorig:RightHandThumb2
									{
										OFFSET -3.215179 -1.872803 1.924282
										CHANNELS 6 Xposition Yposition Zposition Xrotation Yrotation Zrotation
										JOINT mixamorig:RightHandThumb3
										{
											OFFSET -2.654831 -1.527969 1.512609
											CHANNELS 6 Xposition Yposition Zposition Xrotation Yrotation Zrotation
											JOINT mixamorig:RightHandThumb4
											{
												OFFSET -2.018814 -1.152008 1.108052
												CHANNELS 6 Xposition Yposition Zposition Xrotation Yrotation Zrotation
												End Site
												{
													OFFSET -188.809540 -114.533607 132.431396
												}
											}
										}
									}
								}
								JOINT mixamorig:RightHandIndex1
								{
									OFFSET -9.108284 -0.517868 2.259835
									CHANNELS 6 Xposition Yposition Zposition Xrotation Yrotation Zrotation
									JOINT mixamorig:RightHandIndex2
									{
										OFFSET -3.699989 0.000000 0.001215
										CHANNELS 6 Xposition Yposition Zposition Xrotation Yrotation Zrotation
										JOINT mixamorig:RightHandIndex3
										{
											OFFSET -2.850006 0.000031 -0.000522
											CHANNELS 6 Xposition Yposition Zposition Xrotation Yrotation Zrotation
											JOINT mixamorig:RightHandIndex4
											{
												OFFSET -2.772186 -0.000015 -0.000020
												CHANNELS 6 Xposition Yposition Zposition Xrotation Yrotation Zrotation
												End Site
												{
													OFFSET -277.218445 0.000000 -0.050231
												}
											}
										}
									}
								}
								JOINT mixamorig:RightHandMiddle1
								{
									OFFSET -9.532516 -0.000031 -0.000023
									CHANNELS 6 Xposition Yposition Zposition Xrotation Yrotation Zrotation
									JOINT mixamorig:RightHandMiddle2
									{
										OFFSET -3.700005 -0.000015 0.003713
										CHANNELS 6 Xposition Yposition Zposition Xrotation Yrotation Zrotation
										JOINT mixamorig:RightHandMiddle3
										{
											OFFSET -2.949974 0.000015 -0.002054
											CHANNELS 6 Xposition Yposition Zposition Xrotation Yrotation Zrotation
											JOINT mixamorig:RightHandMiddle4
											{
												OFFSET -2.946640 0.000000 -0.000156
												CHANNELS 6 Xposition Yposition Zposition Xrotation Yrotation Zrotation
												End Site
												{
													OFFSET -294.664337 0.000000 -0.113670
												}
											}
										}
									}
								}
								JOINT mixamorig:RightHandRing1
								{
									OFFSET -9.103600 -0.043076 -1.865134
									CHANNELS 6 Xposition Yposition Zposition Xrotation Yrotation Zrotation
									JOINT mixamorig:RightHandRing2
									{
										OFFSET -3.379288 0.000000 -0.001055
										CHANNELS 6 Xposition Yposition Zposition Xrotation Yrotation Zrotation
										JOINT mixamorig:RightHandRing3
										{
											OFFSET -2.889687 -0.000015 0.000379
											CHANNELS 6 Xposition Yposition Zposition Xrotation Yrotation Zrotation
											JOINT mixamorig:RightHandRing4
											{
												OFFSET -2.638809 -0.000015 0.000941
												CHANNELS 6 Xposition Yposition Zposition Xrotation Yrotation Zrotation
												End Site
												{
													OFFSET -263.880371 0.000000 0.516020
												}
											}
										}
									}
								}
								JOINT mixamorig:RightHandPinky1
								{
									OFFSET -8.076683 -0.486710 -3.806280
									CHANNELS 6 Xposition Yposition Zposition Xrotation Yrotation Zrotation
									JOINT mixamorig:RightHandPinky2
									{
										OFFSET -3.600014 -0.000015 -0.003747
										CHANNELS 6 Xposition Yposition Zposition Xrotation Yrotation Zrotation
										JOINT mixamorig:RightHandPinky3
										{
											OFFSET -2.099983 0.000000 -0.005739
											CHANNELS 6 Xposition Yposition Zposition Xrotation Yrotation Zrotation
											JOINT mixamorig:RightHandPinky4
											{
												OFFSET -2.115768 -0.000031 -0.003680
												CHANNELS 6 Xposition Yposition Zposition Xrotation Yrotation Zrotation
												End Site
												{
													OFFSET -211.577087 0.000000 -0.350686
												}
											}
										}
									}
								}
							}
						}
					}
				}
				JOINT mixamorig:LeftShoulder
				{
					OFFSET 4.570447 11.014725 -2.160855
					CHANNELS 6 Xposition Yposition Zposition Xrotation Yrotation Zrotation
					JOINT mixamorig:LeftArm
					{
						OFFSET 10.592371 -0.524597 -2.232119
						CHANNELS 6 Xposition Yposition Zposition Xrotation Yrotation Zrotation
						JOINT mixamorig:LeftForeArm
						{
							OFFSET 27.841532 -0.000031 0.000026
							CHANNELS 6 Xposition Yposition Zposition Xrotation Yrotation Zrotation
							JOINT mixamorig:LeftHand
							{
								OFFSET 28.328846 -0.000061 0.000022
								CHANNELS 6 Xposition Yposition Zposition Xrotation Yrotation Zrotation
								JOINT mixamorig:LeftHandThumb1
								{
									OFFSET 2.466141 -1.576172 2.681732
									CHANNELS 6 Xposition Yposition Zposition Xrotation Yrotation Zrotation
									JOINT mixamorig:LeftHandThumb2
									{
										OFFSET 3.217812 -1.872070 1.916482
										CHANNELS 6 Xposition Yposition Zposition Xrotation Yrotation Zrotation
										JOINT mixamorig:LeftHandThumb3
										{
											OFFSET 2.656029 -1.528778 1.514513
											CHANNELS 6 Xposition Yposition Zposition Xrotation Yrotation Zrotation
											JOINT mixamorig:LeftHandThumb4
											{
												OFFSET 2.020889 -1.154053 1.115139
												CHANNELS 6 Xposition Yposition Zposition Xrotation Yrotation Zrotation
												End Site
												{
													OFFSET 190.885437 -115.081749 130.048782
												}
											}
										}
									}
								}
								JOINT mixamorig:LeftHandIndex1
								{
									OFFSET 9.109314 -0.518021 2.259871
									CHANNELS 6 Xposition Yposition Zposition Xrotation Yrotation Zrotation
									JOINT mixamorig:LeftHandIndex2
									{
										OFFSET 3.699989 0.000000 -0.000322
										CHANNELS 6 Xposition Yposition Zposition Xrotation Yrotation Zrotation
										JOINT mixamorig:LeftHandIndex3
										{
											OFFSET 2.850006 0.000000 0.000352
											CHANNELS 6 Xposition Yposition Zposition Xrotation Yrotation Zrotation
											JOINT mixamorig:LeftHandIndex4
											{
												OFFSET 2.774864 -0.000031 -0.000027
												CHANNELS 6 Xposition Yposition Zposition Xrotation Yrotation Zrotation
												End Site
												{
													OFFSET 277.486267 0.000000 -0.009857
												}
											}
										}
									}
								}
								JOINT mixamorig:LeftHandMiddle1
								{
									OFFSET 9.533394 0.000061 0.000044
									CHANNELS 6 Xposition Yposition Zposition Xrotation Yrotation Zrotation
									JOINT mixamorig:LeftHandMiddle2
									{
										OFFSET 3.699989 -0.000015 -0.000231
										CHANNELS 6 Xposition Yposition Zposition Xrotation Yrotation Zrotation
										JOINT mixamorig:LeftHandMiddle3
										{
											OFFSET 2.949997 -0.000015 -0.000059
											CHANNELS 6 Xposition Yposition Zposition Xrotation Yrotation Zrotation
											JOINT mixamorig:LeftHandMiddle4
											{
												OFFSET 2.952896 0.000031 0.000063
												CHANNELS 6 Xposition Yposition Zposition Xrotation Yrotation Zrotation
												End Site
												{
													OFFSET 295.289337 0.000000 0.022810
												}
											}
										}
									}
								}
								JOINT mixamorig:LeftHandRing1
								{
									OFFSET 9.104523 -0.042999 -1.865074
									CHANNELS 6 Xposition Yposition Zposition Xrotation Yrotation Zrotation
									JOINT mixamorig:LeftHandRing2
									{
										OFFSET 3.150009 -0.000031 0.000043
										CHANNELS 6 Xposition Yposition Zposition Xrotation Yrotation Zrotation
										JOINT mixamorig:LeftHandRing3
										{
											OFFSET 2.949982 -0.000015 0.000040
											CHANNELS 6 Xposition Yposition Zposition Xrotation Yrotation Zrotation
											JOINT mixamorig:LeftHandRing4
											{
												OFFSET 2.644348 0.000000 0.000057
												CHANNELS 6 Xposition Yposition Zposition Xrotation Yrotation Zrotation
												End Site
												{
													OFFSET 264.434631 0.000000 0.012105
												}
											}
										}
									}
								}
								JOINT mixamorig:LeftHandPinky1
								{
									OFFSET 8.077789 -0.486847 -3.806259
									CHANNELS 6 Xposition Yposition Zposition Xrotation Yrotation Zrotation
									JOINT mixamorig:LeftHandPinky2
									{
										OFFSET 3.599953 0.000031 0.014727
										CHANNELS 6 Xposition Yposition Zposition Xrotation Yrotation Zrotation
										JOINT mixamorig:LeftHandPinky3
										{
											OFFSET 2.100021 0.000015 0.007705
											CHANNELS 6 Xposition Yposition Zposition Xrotation Yrotation Zrotation
											JOINT mixamorig:LeftHandPinky4
											{
												OFFSET 2.125504 0.000031 0.007517
												CHANNELS 6 Xposition Yposition Zposition Xrotation Yrotation Zrotation
												End Site
												{
													OFFSET 212.550781 0.000000 0.625752
												}
											}
										}
									}
								}
							}
						}
					}
				}
			}
		}
	}
	JOINT mixamorig:RightUpLeg
	{
		OFFSET -8.207787 -6.751648 -1.599560
		CHANNELS 6 Xposition Yposition Zposition Xrotation Yrotation Zrotation
		JOINT mixamorig:RightLeg
		{
			OFFSET -0.000002 -44.370117 0.345942
			CHANNELS 6 Xposition Yposition Zposition Xrotation Yrotation Zrotation
			JOINT mixamorig:RightFoot
			{
				OFFSET 0.000003 -44.423679 -3.043532
				CHANNELS 6 Xposition Yposition Zposition Xrotation Yrotation Zrotation
				JOINT mixamorig:RightToeBase
				{
					OFFSET -0.000002 -8.728671 10.710558
					CHANNELS 6 Xposition Yposition Zposition Xrotation Yrotation Zrotation
					JOINT mixamorig:RightToe_End
					{
						OFFSET -0.000001 -0.000679 9.278119
						CHANNELS 6 Xposition Yposition Zposition Xrotation Yrotation Zrotation
						End Site
						{
							OFFSET 0.000000 -0.067690 927.812134
						}
					}
				}
			}
		}
	}
	JOINT mixamorig:LeftUpLeg
	{
		OFFSET 8.207793 -6.751686 -1.599556
		CHANNELS 6 Xposition Yposition Zposition Xrotation Yrotation Zrotation
		JOINT mixamorig:LeftLeg
		{
			OFFSET -0.000004 -44.370014 0.346954
			CHANNELS 6 Xposition Yposition Zposition Xrotation Yrotation Zrotation
			JOINT mixamorig:LeftFoot
			{
				OFFSET -0.000001 -44.423672 -3.044401
				CHANNELS 6 Xposition Yposition Zposition Xrotation Yrotation Zrotation
				JOINT mixamorig:LeftToeBase
				{
					OFFSET -0.000002 -8.728669 10.710558
					CHANNELS 6 Xposition Yposition Zposition Xrotation Yrotation Zrotation
					JOINT mixamorig:LeftToe_End
					{
						OFFSET -0.000003 -0.000679 9.278133
						CHANNELS 6 Xposition Yposition Zposition Xrotation Yrotation Zrotation
						End Site
						{
							OFFSET 0.000000 -0.068021 927.813477
						}
					}
				}
			}
		}
	}
}
MOTION
Frames: 3
Frame Time: 0.033333
0.000006 104.270477 1.554256 0.000010 0.000003 -0.000113 -0.000005 10.181587 0.131522 0.000001 -0.000003 0.000084 -0.000000 9.893967 -1.470711 0.000001 0.000000 -0.000000 -0.000000 9.220802 -1.370642 0.000000 -0.000000 -0.000000 0.000001 16.740433 -2.049030 0.000000 -0.000000 -0.000000 0.000000 9.617859 1.685014 0.000000 0.000000 0.000000 0.000002 22.037384 7.501101 0.000000 -0.000000 0.000000 -4.569968 11.014880 -2.160881 0.000008 0.000001 -0.000038 -10.592874 -0.524770 -2.231894 71.363223 29.794036 -21.629621 -27.841522 0.000017 0.000532 -54.647182 117.726397 81.076360 -28.328821 0.000022 0.000024 -0.000320 -0.000044 0.000007 -2.464446 -1.573728 2.682305 -52.381837 -171.618024 -23.219768 -3.215265 -1.872563 1.924660 152.956049 32.017116 7.942242 -2.654962 -1.527888 1.513070 147.117302 27.164460 -34.376246 -2.018834 -1.152001 1.108048 -0.000006 -0.000001 0.000002 -9.108381 -0.517559 2.260149 104.072193 16.157033 -20.679193 -3.700085 0.000322 0.001528 98.629072 13.931283 -16.149410 -2.850087 0.000366 -0.000260 96.683691 11.065108 -12.426295 -2.772168 -0.000016 -0.000022 -0.000000 0.000001 -0.000001 -9.532598 0.000244 0.000259 97.409412 17.843676 -20.430209 -3.700080 0.000319 0.003985 96.923717 13.319938 -14.908751 -2.950071 0.000338 -0.001787 98.509838 11.816064 -13.690525 -2.946631 -0.000013 -0.000153 -0.000001 0.000000 -0.000001 -9.103704 -0.042790 -1.864863 94.658513 20.350588 -21.986111 -3.379340 0.000326 -0.000790 96.190804 10.198675 -11.376980 -2.889745 0.000349 0.000666 100.763930 6.795284 -8.259328 -2.638826 -0.000012 0.000943 0.000000 -0.000000 0.000001 -8.076756 -0.486413 -3.806025 85.608170 21.459727 -19.762266 -3.600030 0.000278 -0.003530 87.374102 9.586226 -8.814201 -2.100015 0.000327 -0.005501 89.701674 4.561630 -4.323141 -2.115757 -0.000032 -0.003681 0.000004 -0.000000 -0.000004 4.570446 11.014691 -2.160851 -0.000018 0.000010 -0.000021 10.592524 -0.524518 -2.232399 69.912778 -59.273413 43.377715 27.841719 -0.000076 -0.000069 242.165805 -69.134362 262.367128 28.328831 -0.000029 0.000031 0.000020 -0.000089 0.000000 2.466169 -1.576164 2.681834 154.609391 188.479439 -171.162464 3.217852 -1.871964 1.916546 310.408902 10.993157 13.701592 2.656029 -1.528796 1.514610 -112.773410 47.339382 57.971879 2.020898 -1.154066 1.115158 0.000000 0.000004 0.000006 9.109114 -0.518010 2.259937 -177.891362 -9.978681 -156.279263 3.700043 0.000108 -0.000448 76.772139 -21.506594 17.126751 2.850034 0.000104 0.000209 417.051378 -12.710861 6.928094 2.774894 -0.000061 -0.000032 0.000001 0.000002 0.000000 9.533362 0.000435 0.000065 -189.213193 1.088098 -13.519857 3.700049 0.000154 -0.000388 78.803000 -11.694194 9.614874 2.950037 0.000086 -0.000186 416.996982 -12.325607 6.711739 2.952874 -0.000045 0.000072 -0.000001 0.000001 -0.000006 9.104362 -0.043012 -1.865005 -179.055076 -8.578838 -167.434110 3.150035 0.000173 -0.000097 78.117789 -5.127412 4.163135 2.949972 0.000100 -0.000122 414.706082 -0.914552 0.473893 2.644318 0.000046 0.000059 -0.000000 0.000001 -0.000000 8.077778 -0.486639 -3.806026 -114.177260 -2.962369 -5.255478 3.599972 0.000269 0.014966 61.504037 176.653076 -175.127471 2.100031 0.000233 0.007904 -109.446862 6.241949 8.184137 2.125503 0.000000 0.007517 -0.000002 0.000000 0.000000 -8.207786 -6.751667 -1.599560 -0.077001 -0.000003 0.000080 -0.000002 -44.370110 0.345938 0.153719 -0.000000 -0.000000 0.000000 -44.423679 -3.043532 -0.076700 0.000000 -0.000002 -0.000006 -8.728667 10.710559 -0.000009 -0.000000 -0.000000 -0.000001 -0.000679 9.278123 0.000000 -0.000000 -0.000000 8.207792 -6.751710 -1.599556 -0.074518 -0.000003 0.000081 -0.000002 -44.370014 0.346960 0.148822 0.000002 0.000000 -0.000001 -44.423664 -3.044403 -0.074314 0.000000 -0.000002 -0.000004 -8.728671 10.710558 0.000007 -0.000000 -0.000000 0.000000 -0.000680 9.278137 -0.000000 0.000000 -0.000001 
0.000006 104.270477 1.554256 0.000010 0.000003 -0.000113 -0.000005 10.181587 0.131522 0.000001 -0.000003 0.000084 -0.000000 9.893967 -1.470711 0.000001 0.000000 -0.000000 -0.000000 9.220802 -1.370642 0.000000 -0.000000 -0.000000 0.000001 16.740433 -2.049030 0.000000 -0.000000 -0.000000 0.000000 9.617859 1.685014 0.000000 0.000000 0.000000 0.000002 22.037384 7.501101 0.000000 -0.000000 0.000000 -4.569968 11.014880 -2.160881 0.000008 0.000001 -0.000038 -10.592880 -0.524752 -2.231905 71.623317 27.042923 -19.686842 -27.841530 0.000015 0.000524 -54.634622 119.587924 83.162491 -28.328819 0.000009 0.000028 -0.000322 -0.000044 0.000009 -2.464466 -1.573726 2.682297 -52.353284 -171.622751 -23.132843 -3.215281 -1.872569 1.924644 153.224898 32.047005 7.858110 -2.654962 -1.527865 1.513072 147.576250 27.108090 -34.128567 -2.018823 -1.151997 1.108068 -0.000001 -0.000003 0.000004 -9.108408 -0.517566 2.260138 103.956661 16.151914 -20.630713 -3.700055 0.000322 0.001533 98.692873 13.806325 -16.022639 -2.850067 0.000373 -0.000259 96.732103 10.898957 -12.250326 -2.772153 -0.000015 -0.000024 -0.000000 -0.000000 -0.000001 -9.532611 0.000266 0.000283 97.637124 18.013075 -20.703000 -3.700080 0.000332 0.003994 96.837643 13.303741 -14.868280 -2.950076 0.000333 -0.001799 98.579198 11.712832 -13.587618 -2.946620 0.000013 -0.000154 0.000000 -0.000000 0.000001 -9.103724 -0.042768 -1.864847 94.916994 20.498390 -22.243498 -3.379330 0.000299 -0.000784 96.362228 10.273376 -11.494390 -2.889766 0.000350 0.000666 101.538753 6.722300 -8.284276 -2.638814 -0.000018 0.000941 -0.000000 0.000000 -0.000001 -8.076775 -0.486397 -3.806020 85.580966 21.506278 -19.796286 -3.600036 0.000274 -0.003527 87.322589 9.694511 -8.909234 -2.100018 0.000324 -0.005504 89.963386 4.566637 -4.347904 -2.115772 -0.000053 -0.003684 0.000001 -0.000003 -0.000004 4.570446 11.014691 -2.160851 -0.000018 0.000010 -0.000021 10.592521 -0.524523 -2.232399 69.738246 -57.636517 41.950086 27.841711 -0.000094 -0.000071 242.217168 -68.930897 262.640718 28.328838 -0.000044 0.000012 0.000019 -0.000090 0.000000 2.466149 -1.576194 2.681838 154.724699 190.279740 -170.815081 3.217841 -1.871976 1.916569 311.003867 9.377047 13.466097 2.656041 -1.528794 1.514606 -99.568681 41.667931 45.767489 2.020902 -1.154068 1.115158 -0.000002 0.000003 0.000004 9.109089 -0.517968 2.259968 -175.701330 -13.658399 -145.252579 3.700068 0.000115 -0.000434 76.834594 -24.092731 19.227203 2.850048 0.000122 0.000227 419.371293 -13.775923 7.877901 2.774880 -0.000046 -0.000022 0.000000 -0.000002 -0.000000 9.533524 0.000327 0.000085 -186.858007 -2.515872 40.109138 3.700043 0.000159 -0.000377 78.250499 -13.065315 10.640822 2.950042 0.000091 -0.000170 420.136465 -12.542856 7.282633 2.952873 -0.000031 0.000054 -0.000000 -0.000002 0.000000 9.104273 -0.042927 -1.864976 -174.546290 -12.639643 -133.453318 3.150038 0.000189 -0.000120 77.664633 -5.348893 4.308033 2.950006 0.000125 -0.000121 416.993922 -0.627853 0.341670 2.644314 0.000030 0.000055 -0.000000 0.000000 -0.000001 8.077757 -0.486634 -3.806018 -114.509720 -3.710389 -6.439285 3.599977 0.000299 0.014964 61.810145 177.093514 -175.886086 2.100026 0.000225 0.007926 -108.970354 5.994340 7.768965 2.125511 -0.000001 0.007513 0.000001 0.000000 0.000000 -8.207786 -6.751667 -1.599560 -0.077001 -0.000003 0.000080 -0.000002 -44.370110 0.345938 0.153719 -0.000000 -0.000000 0.000000 -44.423679 -3.043532 -0.076700 0.000000 -0.000002 -0.000006 -8.728667 10.710559 -0.000009 -0.000000 -0.000000 -0.000001 -0.000679 9.278123 0.000000 -0.000000 -0.000000 8.207792 -6.751710 -1.599556 -0.074518 -0.000003 0.000081 -0.000002 -44.370014 0.346960 0.148822 0.000002 0.000000 -0.000001 -44.423664 -3.044403 -0.074314 0.000000 -0.000002 -0.000004 -8.728671 10.710558 0.000007 -0.000000 -0.000000 0.000000 -0.000680 9.278137 -0.000000 0.000000 -0.000001 
0.000006 104.270477 1.554256 0.000010 0.000003 -0.000113 -0.000005 10.181587 0.131522 0.000001 -0.000003 0.000084 -0.000000 9.893967 -1.470711 0.000001 0.000000 -0.000000 -0.000000 9.220802 -1.370642 0.000000 -0.000000 -0.000000 0.000001 16.740433 -2.049030 0.000000 -0.000000 -0.000000 0.000000 9.617859 1.685014 0.000000 0.000000 0.000000 0.000002 22.037384 7.501101 0.000000 -0.000000 0.000000 -4.569968 11.014880 -2.160881 0.000008 0.000001 -0.000038 -10.592877 -0.524750 -2.231923 71.719732 25.801851 -18.801071 -27.841526 -0.000004 0.000549 -54.662970 118.631834 82.111660 -28.328823 0.000007 0.000029 -0.000323 -0.000047 0.000008 -2.464458 -1.573705 2.682302 -52.306931 -171.449237 -22.948918 -3.215260 -1.872569 1.924648 153.337747 32.059429 7.822787 -2.654960 -1.527902 1.513084 147.736937 27.063960 -34.288967 -2.018842 -1.151998 1.108062 0.000000 -0.000003 0.000002 -9.108399 -0.517540 2.260166 103.927489 16.037335 -20.475387 -3.700065 0.000319 0.001530 98.748860 13.748784 -15.971581 -2.850066 0.000370 -0.000265 96.783323 10.843660 -12.199158 -2.772168 -0.000000 -0.000016 -0.000000 -0.000000 -0.000001 -9.532629 0.000262 0.000269 97.585925 17.658394 -20.282141 -3.700076 0.000319 0.003990 96.712945 13.175408 -14.692439 -2.950058 0.000344 -0.001782 98.404482 11.650269 -13.473957 -2.946608 -0.000015 -0.000155 -0.000000 -0.000000 -0.000001 -9.103722 -0.042767 -1.864862 94.740570 20.464877 -22.140384 -3.379342 0.000305 -0.000805 96.413345 10.408251 -11.655251 -2.889760 0.000344 0.000664 101.693867 6.823660 -8.431477 -2.638814 -0.000031 0.000941 0.000001 -0.000000 -0.000001 -8.076784 -0.486411 -3.806027 85.526707 21.455228 -19.730478 -3.600051 0.000281 -0.003530 87.156110 9.749993 -8.936031 -2.100006 0.000320 -0.005495 90.023505 4.634906 -4.420547 -2.115768 -0.000037 -0.003682 0.000000 0.000000 -0.000000 4.570446 11.014691 -2.160851 -0.000018 0.000010 -0.000021 10.592515 -0.524508 -2.232400 70.003258 -56.666367 41.370094 27.841707 -0.000064 -0.000079 242.344073 -68.885470 262.831225 28.328835 -0.000044 0.000032 0.000019 -0.000089 -0.000001 2.466159 -1.576195 2.681833 154.630456 191.974857 -170.448122 3.217846 -1.871974 1.916576 311.644757 6.715809 13.216767 2.656054 -1.528788 1.514603 -104.736286 41.867021 49.407515 2.020903 -1.154052 1.115160 -0.000001 -0.000000 0.000001 9.109188 -0.518054 2.259935 -179.724653 -13.455735 -177.749389 3.700058 0.000101 -0.000431 75.470810 -23.379999 18.208796 2.850038 0.000091 0.000209 416.789727 -14.840556 8.053639 2.774882 -0.000017 -0.000027 -0.000000 -0.000001 0.000002 9.533443 0.000380 0.000055 -193.463223 -1.080328 9.068617 3.700058 0.000146 -0.000387 77.232562 -12.503246 9.999219 2.950044 0.000080 -0.000177 417.125827 -13.833641 7.558255 2.952863 -0.000018 0.000065 -0.000000 0.000000 0.000001 9.104408 -0.043047 -1.865004 -180.159763 -11.361655 -181.590292 3.150024 0.000191 -0.000103 77.697999 -5.116828 4.123547 2.949988 0.000105 -0.000101 415.926528 -1.177220 0.625792 2.644325 0.000031 0.000058 -0.000001 -0.000002 0.000000 8.077771 -0.486620 -3.806015 -114.180566 -3.073640 -5.425931 3.599976 0.000279 0.014936 61.725854 176.487976 -174.875027 2.100027 0.000225 0.007936 -109.127374 6.277124 8.185183 2.125509 -0.000000 0.007511 0.000002 0.000002 0.000001 -8.207786 -6.751667 -1.599560 -0.077001 -0.000003 0.000080 -0.000002 -44.370110 0.345938 0.153719 -0.000000 -0.000000 0.000000 -44.423679 -3.043532 -0.076700 0.000000 -0.000002 -0.000006 -8.728667 10.710559 -0.000009 -0.000000 -0.000000 -0.000001 -0.000679 9.278123 0.000000 -0.000000 -0.000000 8.207792 -6.751710 -1.599556 -0.074518 -0.000003 0.000081 -0.000002 -44.370014 0.346960 0.148822 0.000002 0.000000 -0.000001 -44.423664 -3.044403 -0.074314 0.000000 -0.000002 -0.000004 -8.728671 10.710558 0.000007 -0.000000 -0.000000 0.000000 -0.000680 9.278137 -0.000000 0.000000 -0.000001 
